<mxfile host="app.diagrams.net" modified="2023-07-20T16:42:10.830Z" agent="Mozilla/5.0 (X11; Linux aarch64; rv:109.0) Gecko/20100101 Firefox/114.0" version="21.6.3" etag="yFFMeaR8jb5ucbsz_csw" type="github">
  <diagram name="Page-1" id="H5a_DJ5ws2yhPFQn_E9V">
    <mxGraphModel>
      <root>
        <mxCell id="0" />
        <mxCell id="1" parent="0" />
      </root>
    </mxGraphModel>
  </diagram>
</mxfile>
